<svg xmlns="http://www.w3.org/2000/svg" width="528" height="204" viewBox="0 0 264 102">
  <defs>
    <style>
      .cls-1 {
        fill: #5d0400;
        fill-rule: evenodd;
      }
    </style>
  </defs>
  <path id="Pennsylvania_Dutch_Baskets" data-name="Pennsylvania Dutch Baskets" class="cls-1" d="M19.757,31.294a4.187,4.187,0,0,0-4.342,4.16,4.1,4.1,0,0,0,4.342,4.251h3.256v1.447c0,4.341-.362,5.336-1.628,5.336a2.7,2.7,0,0,1-1.9-.9,4.323,4.323,0,0,0-3.166-1.357A4.585,4.585,0,0,0,13.335,45.4a4.191,4.191,0,0,0-.452,5.879c2.533,3.166,6.06,3.618,8.593,3.618,7.6,0,10.221-4.884,10.221-10.944V39.705H32.24c15.287,0,22.885-9.768,22.885-19.446,0-9.316-7.055-19.265-22.885-19.265H18.129c-10.4,0-18.543,5.7-18.543,15.828A17.04,17.04,0,0,0,6.55,30.208a5.113,5.113,0,0,0,2.985.995,4.148,4.148,0,0,0,4.161-4.16A4.521,4.521,0,0,0,12.068,23.7c-1.9-1.809-3.8-4.07-3.8-6.874,0-4.974,4.071-7.417,9.588-7.417H32.782c8.774,0,12.845,4.251,12.845,10.763S41.195,31.294,32.24,31.294H31.7V15.918a4.021,4.021,0,0,0-4.251-4.251,4.173,4.173,0,0,0-4.432,4.251V31.294H19.757ZM58.525,54.783a13.053,13.053,0,0,0,7.633-1.96,2.6,2.6,0,0,0,1.135-3.455,1.961,1.961,0,0,0-1.805-1.031,2.957,2.957,0,0,0-1.5.464,8.848,8.848,0,0,1-5.054,1.444,5.663,5.663,0,0,1-5.879-5.776c0-3.146,1.96-5.724,5.157-5.724,2.63,0,3.662.98,3.662,2.269a1.947,1.947,0,0,1-2.166,1.908c-0.722,0-1.6-.413-2.218-0.413a2.267,2.267,0,0,0-2.269,2.321,2.167,2.167,0,0,0,1.392,2.063,7.465,7.465,0,0,0,2.785.567c4.9,0,7.633-2.682,7.633-6.291,0-3.352-2.837-6.962-8.871-6.962-6.292,0-10.263,4.486-10.263,10.262A10.287,10.287,0,0,0,58.525,54.783ZM76.007,36.476a2.375,2.375,0,0,0-4.745,0V52.307a2.243,2.243,0,0,0,2.321,2.321,2.27,2.27,0,0,0,2.424-2.321V45.6c0.155-4.59,2.837-6.755,5.054-6.755,1.083,0,2.011.516,2.011,2.63v7.993c0,3.713,1.805,5.157,4.539,5.157a4.873,4.873,0,0,0,3.61-1.289,2.243,2.243,0,0,0,.928-1.8,1.852,1.852,0,0,0-2.94-1.65,1.649,1.649,0,0,1-.877.413c-0.361,0-.516-0.155-0.516-0.928V40.343c0-4.126-2.424-6.137-5.622-6.137a6.728,6.728,0,0,0-6.189,3.919v-1.65Zm23.052,0a2.375,2.375,0,0,0-4.745,0V52.307a2.243,2.243,0,0,0,2.321,2.321,2.27,2.27,0,0,0,2.424-2.321V45.6c0.155-4.59,2.837-6.755,5.055-6.755,1.083,0,2.011.516,2.011,2.63v7.993c0,3.713,1.805,5.157,4.539,5.157a4.874,4.874,0,0,0,3.61-1.289,2.244,2.244,0,0,0,.928-1.8,1.852,1.852,0,0,0-2.94-1.65,1.647,1.647,0,0,1-.876.413c-0.361,0-.516-0.155-0.516-0.928V40.343c0-4.126-2.424-6.137-5.622-6.137a6.728,6.728,0,0,0-6.189,3.919v-1.65Zm30.272,0.773a7.749,7.749,0,0,0-6.4-3.042c-3.713,0-7.014,2.424-7.014,6.5,0,3.455,2.269,4.847,4.539,6.188,2.011,1.186,3.455,2.011,3.455,2.785,0,0.413-.258.67-0.98,0.67-1.289,0-2.063-1.392-3.249-1.392a2.131,2.131,0,0,0-2.115,2.269c0,2.836,3.095,3.558,5.467,3.558,3.559,0,5.519-2.011,5.519-5.105,0-3.043-2.734-4.693-5-6.137-1.754-1.134-3.043-1.8-3.043-3.043,0-1.031.825-1.8,2.218-1.8,1.805,0,2.578,1.031,3.765,1.908,1.392,1.031,3.3-.309,3.3-1.96A2.154,2.154,0,0,0,129.33,37.249Zm15.42,5.363c0,5.054-2.734,7.426-5.055,7.426-1.083,0-2.011-.516-2.011-2.682V36.527a2.373,2.373,0,0,0-4.745,0V48.543c0,4.022,2.063,6.085,5.673,6.085a7.441,7.441,0,0,0,6.138-2.682v2.114c0,4.744-1.857,6.549-4.8,6.549a7.671,7.671,0,0,1-3.816-1.083,3.553,3.553,0,0,0-1.857-.567,2.246,2.246,0,0,0-2.166,2.321,2.335,2.335,0,0,0,.928,1.857c1.6,1.289,4.075,1.96,7.066,1.96,5.415,0,9.387-2.94,9.387-9.953V36.424a2.188,2.188,0,0,0-2.321-2.217,2.245,2.245,0,0,0-2.424,2.217v6.188Zm14.439,12.016a4.874,4.874,0,0,0,3.61-1.289,2.241,2.241,0,0,0,.928-1.8,1.852,1.852,0,0,0-2.939-1.65,1.649,1.649,0,0,1-.877.413c-0.361,0-.516-0.155-0.516-0.928V23.893a0.836,0.836,0,0,1,.929-1.031h0.206a2.129,2.129,0,0,0,2.218-2.372,2.063,2.063,0,0,0-2.218-2.321h-0.413c-3.455,0-5.467.98-5.467,5.879V49.471C154.65,53.184,156.455,54.628,159.189,54.628ZM181.674,37.4a2.535,2.535,0,0,0,.258-0.98,2.332,2.332,0,0,0-2.373-2.217,2.28,2.28,0,0,0-2.063,1.341l-4.487,12.789-4.435-12.789a2.362,2.362,0,0,0-4.487.877,1.22,1.22,0,0,0,.1.67l6.344,15.832a2.612,2.612,0,0,0,2.475,1.856,2.689,2.689,0,0,0,2.527-1.96ZM201.58,54.628a4.874,4.874,0,0,0,3.61-1.289,2.244,2.244,0,0,0,.928-1.8,1.852,1.852,0,0,0-2.94-1.65,1.65,1.65,0,0,1-.876.413c-0.361,0-.516-0.155-0.516-0.928V36.476a2.166,2.166,0,0,0-2.373-2.269,2.234,2.234,0,0,0-2.269,1.444,4.459,4.459,0,0,0-3.558-1.444c-5.725,0-9.645,5.157-9.645,11.706,0,5.054,2.734,8.87,7.324,8.87a7.256,7.256,0,0,0,6.034-3.094C197.866,53.8,199.465,54.628,201.58,54.628Zm-7.84-15.78c1.754,0,3.146,1.444,3.3,4.074v0.67c-0.1,3.146-1.96,6.549-4.9,6.549-1.856,0-3.146-1.65-3.146-4.332C189,42.1,190.646,38.848,193.74,38.848Zm19.287-2.372a2.375,2.375,0,0,0-4.745,0V52.307a2.243,2.243,0,0,0,2.321,2.321,2.27,2.27,0,0,0,2.424-2.321V45.6c0.155-4.59,2.836-6.755,5.054-6.755,1.083,0,2.011.516,2.011,2.63v7.993c0,3.713,1.806,5.157,4.539,5.157a4.872,4.872,0,0,0,3.61-1.289,2.242,2.242,0,0,0,.929-1.8,1.853,1.853,0,0,0-2.94-1.65,1.649,1.649,0,0,1-.877.413c-0.361,0-.516-0.155-0.516-0.928V40.343c0-4.126-2.424-6.137-5.621-6.137a6.728,6.728,0,0,0-6.189,3.919v-1.65Zm22.69,18.152a4.87,4.87,0,0,0,3.61-1.289,2.242,2.242,0,0,0,.929-1.8,1.852,1.852,0,0,0-2.94-1.65,1.649,1.649,0,0,1-.877.413c-0.361,0-.515-0.155-0.515-0.928V36.527a2.257,2.257,0,0,0-2.373-2.321,2.229,2.229,0,0,0-2.372,2.321V49.471C231.179,53.184,232.984,54.628,235.717,54.628Zm-1.96-30.065a3.059,3.059,0,0,0-3.042,3.094,2.953,2.953,0,0,0,3.042,3.043,3,3,0,0,0,3.095-3.043A3.1,3.1,0,0,0,233.757,24.563ZM258.77,54.628a4.874,4.874,0,0,0,3.61-1.289,2.241,2.241,0,0,0,.928-1.8,1.852,1.852,0,0,0-2.939-1.65,1.649,1.649,0,0,1-.877.413c-0.361,0-.516-0.155-0.516-0.928V36.476a2.165,2.165,0,0,0-2.372-2.269,2.233,2.233,0,0,0-2.269,1.444,4.462,4.462,0,0,0-3.559-1.444c-5.725,0-9.644,5.157-9.644,11.706,0,5.054,2.733,8.87,7.323,8.87a7.254,7.254,0,0,0,6.034-3.094C255.057,53.8,256.655,54.628,258.77,54.628Zm-7.839-15.78c1.753,0,3.146,1.444,3.3,4.074v0.67c-0.1,3.146-1.959,6.549-4.9,6.549-1.857,0-3.146-1.65-3.146-4.332C246.186,42.1,247.836,38.848,250.931,38.848ZM17.31,73.942h9.37c7.358,0,13.278,4.368,13.278,11.84,0,7.414-5.461,11.323-11.554,11.323H25.128c0.8-.172,1.15-1.322,1.15-3.046V78.081a2.543,2.543,0,0,0-2.759-2.7,2.636,2.636,0,0,0-2.759,2.7V94.117c0,1.782,0,2.989-1.437,2.989H16.965a2.608,2.608,0,0,0-2.644,2.7,2.532,2.532,0,0,0,2.644,2.644h11.5c11.726,0,17.532-8.162,17.532-16.668,0-8.449-6.093-17.186-18.567-17.186H17.483C10.872,68.6,5.7,72.218,5.7,78.655a10.829,10.829,0,0,0,4.426,8.507,3.249,3.249,0,0,0,1.9.632,2.636,2.636,0,0,0,2.644-2.644,2.873,2.873,0,0,0-1.035-2.127c-1.207-1.15-2.414-2.587-2.414-4.368C11.217,75.494,13.8,73.942,17.31,73.942ZM59.3,79.929c0,4.267-2.308,6.271-4.268,6.271-0.915,0-1.7-.436-1.7-2.264V74.791a2,2,0,0,0-4.007,0V84.937c0,3.4,1.742,5.138,4.791,5.138a6.293,6.293,0,0,0,5.4-2.526,3.345,3.345,0,0,0,3.615,2.526,4.115,4.115,0,0,0,3.049-1.089,1.894,1.894,0,0,0,.784-1.524,1.564,1.564,0,0,0-2.482-1.394,1.393,1.393,0,0,1-.74.348c-0.3,0-.435-0.131-0.435-0.784V74.791a1.905,1.905,0,0,0-2-1.96,1.883,1.883,0,0,0-2,1.96v5.138Zm11.367-2.874v8.056c0,2.874,1.176,5.095,4.66,5.095a5.412,5.412,0,0,0,4.05-1.655,2.3,2.3,0,0,0,.479-1.306,1.764,1.764,0,0,0-1.873-1.96,2.07,2.07,0,0,0-1.568.653,1.351,1.351,0,0,1-.958.392c-0.566,0-.784-0.479-0.784-1.7V77.055H77.8a1.788,1.788,0,0,0,1.873-1.916,1.835,1.835,0,0,0-1.873-2H74.669V70.654a1.905,1.905,0,0,0-2-1.96,1.883,1.883,0,0,0-2,1.96v2.482h-2.09a1.9,1.9,0,0,0-1.916,2,1.849,1.849,0,0,0,1.916,1.916h2.09Zm21.775,1.176a1.559,1.559,0,0,1-.479,1.089,1.88,1.88,0,0,0-.566,1.35,1.943,1.943,0,0,0,1.96,1.916,2.419,2.419,0,0,0,1.7-.784,4.6,4.6,0,0,0,1.437-3.571c0-3.44-2.918-5.4-6.315-5.4-5.008,0-8.754,3.44-8.754,8.622,0,5.443,3.136,8.622,8.275,8.622a9.144,9.144,0,0,0,6.576-2.221,1.719,1.719,0,0,0,.653-1.481,2,2,0,0,0-1.916-1.96,1.97,1.97,0,0,0-1.35.523,4.95,4.95,0,0,1-3.44,1.219c-2.57,0-4.355-1.655-4.355-4.7,0-3,1.873-4.7,4.311-4.7C91.7,76.751,92.438,77.36,92.438,78.231Zm7.621,9.885a1.894,1.894,0,0,0,1.96,1.96,1.916,1.916,0,0,0,2.046-1.96V82.455c0.131-3.876,2.4-5.7,4.268-5.7,0.915,0,1.7.435,1.7,2.221v6.75c0,3.135,1.524,4.355,3.832,4.355a4.116,4.116,0,0,0,3.049-1.089,1.9,1.9,0,0,0,.784-1.524,1.565,1.565,0,0,0-2.483-1.394,1.392,1.392,0,0,1-.74.348c-0.305,0-.436-0.131-0.436-0.784V78.013c0-3.484-2.046-5.182-4.747-5.182a5.681,5.681,0,0,0-5.226,3.31V64.122a0.706,0.706,0,0,1,.784-0.871h0.174a1.8,1.8,0,0,0,1.873-2,1.742,1.742,0,0,0-1.873-1.959h-0.348c-2.918,0-4.616.827-4.616,4.964V88.116ZM134.78,99.807a2.439,2.439,0,0,0,2.529,2.644h11.554c8.737,0,10.749-4.311,10.749-8.737a6.218,6.218,0,0,0-3.736-5.977,9.822,9.822,0,0,0,6.035-8.621c0-5.23-3.679-10.518-12.646-10.518h-12.7c-6.611,0-11.784,3.621-11.784,10.058a10.828,10.828,0,0,0,4.426,8.507,3.248,3.248,0,0,0,1.9.632,2.636,2.636,0,0,0,2.644-2.644,2.875,2.875,0,0,0-1.035-2.127c-1.207-1.15-2.414-2.587-2.414-4.368,0-3.161,2.587-4.713,6.093-4.713h12.819c4.368,0,6.61,2.127,6.61,5.173,0,3.161-2.242,5.575-6.61,5.575h-3.967v-6.61a2.543,2.543,0,0,0-2.759-2.7,2.636,2.636,0,0,0-2.759,2.7v6.61h-2.3a2.547,2.547,0,0,0-2.7,2.644,2.588,2.588,0,0,0,2.7,2.7h2.3v4.081c0,1.782,0,2.989-1.437,2.989h-0.977A2.513,2.513,0,0,0,134.78,99.807Zm14.37-9.771c3.564,0,4.369,1.839,4.369,3.678,0,1.9-.862,3.391-4.714,3.391h-4.713c0.8-.172,1.149-1.322,1.149-3.046V90.036h3.909Zm29.736,0.037a4.072,4.072,0,0,0,3.018-1.078,1.873,1.873,0,0,0,.776-1.509,1.548,1.548,0,0,0-2.457-1.379,1.382,1.382,0,0,1-.733.345c-0.3,0-.431-0.129-0.431-0.776V74.9a1.811,1.811,0,0,0-1.983-1.9,1.866,1.866,0,0,0-1.9,1.207A3.73,3.73,0,0,0,172.2,73c-4.785,0-8.062,4.311-8.062,9.785,0,4.225,2.285,7.414,6.122,7.414a6.065,6.065,0,0,0,5.044-2.586C175.782,89.383,177.119,90.073,178.886,90.073Zm-6.553-13.191c1.466,0,2.63,1.207,2.759,3.406v0.56c-0.086,2.629-1.638,5.475-4.095,5.475-1.552,0-2.63-1.379-2.63-3.621C168.367,79.6,169.747,76.882,172.333,76.882Zm22.161-1.336A6.476,6.476,0,0,0,189.148,73c-3.1,0-5.863,2.026-5.863,5.432,0,2.888,1.9,4.052,3.794,5.173,1.681,0.991,2.889,1.681,2.889,2.328,0,0.345-.216.56-0.82,0.56-1.077,0-1.724-1.164-2.716-1.164a1.781,1.781,0,0,0-1.767,1.9c0,2.371,2.587,2.974,4.57,2.974,2.974,0,4.613-1.681,4.613-4.268,0-2.543-2.285-3.923-4.182-5.13-1.466-.948-2.544-1.509-2.544-2.543a1.609,1.609,0,0,1,1.854-1.509c1.509,0,2.156.862,3.147,1.595,1.164,0.862,2.759-.259,2.759-1.638A1.8,1.8,0,0,0,194.494,75.545Zm3.235,12.587a1.875,1.875,0,0,0,1.94,1.94,1.9,1.9,0,0,0,2.026-1.94V82.744c0-4.009,2.371-5.863,4.355-5.863a0.933,0.933,0,0,1,1.164.905c0,0.862-.475,1.638-2.932,2.974-1.035.56-1.423,0.991-1.423,1.854a2.416,2.416,0,0,0,.863,1.811,25.806,25.806,0,0,1,2.155,2.974c1.811,2.371,2.5,2.673,4.182,2.673a3.112,3.112,0,0,0,3.363-2.888,1.794,1.794,0,0,0-1.811-1.81c-0.647,0-.992.733-1.552,0.733A3.414,3.414,0,0,1,208.55,84.6a3.458,3.458,0,0,0-2.112-1.724c2.8-.991,4.828-3.233,4.828-5.647A3.938,3.938,0,0,0,206.955,73a6.01,6.01,0,0,0-5.26,2.63V64.381a0.7,0.7,0,0,1,.776-0.862h0.173a1.78,1.78,0,0,0,1.854-1.983,1.725,1.725,0,0,0-1.854-1.94H202.3c-2.889,0-4.57.819-4.57,4.914V88.133ZM223.512,90.2a10.91,10.91,0,0,0,6.38-1.638,2.176,2.176,0,0,0,.949-2.888,1.64,1.64,0,0,0-1.509-.862,2.477,2.477,0,0,0-1.251.388,7.393,7.393,0,0,1-4.224,1.207,4.734,4.734,0,0,1-4.915-4.828c0-2.63,1.638-4.785,4.311-4.785,2.2,0,3.061.819,3.061,1.9a1.628,1.628,0,0,1-1.811,1.595c-0.6,0-1.336-.345-1.854-0.345a1.9,1.9,0,0,0-1.9,1.94,1.812,1.812,0,0,0,1.165,1.724,6.238,6.238,0,0,0,2.328.474c4.095,0,6.38-2.242,6.38-5.259,0-2.8-2.371-5.82-7.415-5.82a8.214,8.214,0,0,0-8.579,8.578A8.6,8.6,0,0,0,223.512,90.2Zm12.5-13.018v7.975c0,2.845,1.164,5.044,4.613,5.044a5.357,5.357,0,0,0,4.009-1.638,2.276,2.276,0,0,0,.474-1.293,1.746,1.746,0,0,0-1.854-1.94,2.052,2.052,0,0,0-1.552.647,1.335,1.335,0,0,1-.948.388c-0.56,0-.776-0.474-0.776-1.681v-7.5h3.1a1.771,1.771,0,0,0,1.854-1.9,1.817,1.817,0,0,0-1.854-1.983h-3.1V70.847A1.886,1.886,0,0,0,238,68.907a1.863,1.863,0,0,0-1.983,1.94V73.3h-2.07a1.876,1.876,0,0,0-1.9,1.983,1.831,1.831,0,0,0,1.9,1.9h2.07Zm21.772-1.638A6.477,6.477,0,0,0,252.442,73c-3.1,0-5.863,2.026-5.863,5.432,0,2.888,1.9,4.052,3.794,5.173,1.681,0.991,2.889,1.681,2.889,2.328,0,0.345-.216.56-0.82,0.56-1.077,0-1.724-1.164-2.716-1.164a1.781,1.781,0,0,0-1.767,1.9c0,2.371,2.586,2.974,4.57,2.974,2.974,0,4.613-1.681,4.613-4.268,0-2.543-2.285-3.923-4.182-5.13-1.466-.948-2.544-1.509-2.544-2.543a1.609,1.609,0,0,1,1.854-1.509c1.509,0,2.156.862,3.147,1.595,1.164,0.862,2.759-.259,2.759-1.638A1.8,1.8,0,0,0,257.788,75.545Z"/>
</svg>
